<mxfile host="app.diagrams.net" modified="2023-06-30T11:19:25.635Z" agent="Mozilla/5.0 (Windows NT 10.0; Win64; x64) AppleWebKit/537.36 (KHTML, like Gecko) Chrome/114.0.0.0 Safari/537.36" etag="FsEplRW3an3U96_BOtAQ" version="21.5.2" type="device">
  <diagram id="ZiJ1QPWtikxDmdyrKGaZ" name="Page-1">
    <mxGraphModel dx="1050" dy="501" grid="1" gridSize="10" guides="1" tooltips="1" connect="1" arrows="1" fold="1" page="1" pageScale="1" pageWidth="850" pageHeight="1100" math="0" shadow="0">
      <root>
        <mxCell id="0" />
        <mxCell id="1" parent="0" />
        <mxCell id="5E4w11CoWnl0UhFc0yHq-3" value="" style="whiteSpace=wrap;html=1;aspect=fixed;" parent="1" vertex="1">
          <mxGeometry x="180" y="80" width="770" height="770" as="geometry" />
        </mxCell>
        <mxCell id="mLHjseE6QlHjcq5zer_h-18" style="rounded=0;orthogonalLoop=1;jettySize=auto;html=1;entryX=0;entryY=0.5;entryDx=0;entryDy=0;endArrow=none;endFill=0;" parent="1" source="mLHjseE6QlHjcq5zer_h-16" target="mLHjseE6QlHjcq5zer_h-19" edge="1">
          <mxGeometry relative="1" as="geometry">
            <mxPoint x="210" y="330" as="targetPoint" />
          </mxGeometry>
        </mxCell>
        <mxCell id="mLHjseE6QlHjcq5zer_h-16" value="User" style="shape=umlActor;verticalLabelPosition=bottom;verticalAlign=top;html=1;" parent="1" vertex="1">
          <mxGeometry x="60" y="300" width="30" height="60" as="geometry" />
        </mxCell>
        <mxCell id="mLHjseE6QlHjcq5zer_h-19" value="View Feedback Screen" style="ellipse;whiteSpace=wrap;html=1;" parent="1" vertex="1">
          <mxGeometry x="220" y="295" width="140" height="70" as="geometry" />
        </mxCell>
        <mxCell id="mLHjseE6QlHjcq5zer_h-24" value="" style="group" parent="1" vertex="1" connectable="0">
          <mxGeometry x="425" y="280" width="210" height="80" as="geometry" />
        </mxCell>
        <mxCell id="mLHjseE6QlHjcq5zer_h-27" value="Bill" style="ellipse;whiteSpace=wrap;html=1;strokeColor=#000000;" parent="mLHjseE6QlHjcq5zer_h-24" vertex="1">
          <mxGeometry x="70" y="10" width="140" height="70" as="geometry" />
        </mxCell>
        <mxCell id="mLHjseE6QlHjcq5zer_h-26" value="&amp;lt;&amp;lt;include&amp;gt;&amp;gt;" style="text;html=1;align=center;verticalAlign=middle;resizable=0;points=[];autosize=1;" parent="1" vertex="1">
          <mxGeometry x="380" y="300" width="80" height="20" as="geometry" />
        </mxCell>
        <mxCell id="mLHjseE6QlHjcq5zer_h-25" value="" style="endArrow=open;dashed=1;endFill=0;endSize=12;html=1;exitX=1;exitY=0.5;exitDx=0;exitDy=0;" parent="1" source="mLHjseE6QlHjcq5zer_h-19" target="mLHjseE6QlHjcq5zer_h-27" edge="1">
          <mxGeometry width="160" relative="1" as="geometry">
            <mxPoint x="410" y="220" as="sourcePoint" />
            <mxPoint x="480" y="250" as="targetPoint" />
          </mxGeometry>
        </mxCell>
        <mxCell id="KWzxCcdFLLgbVCWJMNHw-4" value="" style="endArrow=open;dashed=1;endFill=0;endSize=12;html=1;" parent="1" source="mLHjseE6QlHjcq5zer_h-27" target="KWzxCcdFLLgbVCWJMNHw-6" edge="1">
          <mxGeometry width="160" relative="1" as="geometry">
            <mxPoint x="620" y="221" as="sourcePoint" />
            <mxPoint x="760" y="180" as="targetPoint" />
          </mxGeometry>
        </mxCell>
        <mxCell id="KWzxCcdFLLgbVCWJMNHw-5" value="" style="group" parent="1" vertex="1" connectable="0">
          <mxGeometry x="670" y="285" width="210" height="80" as="geometry" />
        </mxCell>
        <mxCell id="KWzxCcdFLLgbVCWJMNHw-6" value="Login" style="ellipse;whiteSpace=wrap;html=1;strokeColor=#000000;" parent="KWzxCcdFLLgbVCWJMNHw-5" vertex="1">
          <mxGeometry x="70" y="10" width="140" height="70" as="geometry" />
        </mxCell>
        <mxCell id="KWzxCcdFLLgbVCWJMNHw-7" value="&amp;lt;&amp;lt;include&amp;gt;&amp;gt;" style="text;html=1;align=center;verticalAlign=middle;resizable=0;points=[];autosize=1;" parent="1" vertex="1">
          <mxGeometry x="640" y="295" width="80" height="20" as="geometry" />
        </mxCell>
      </root>
    </mxGraphModel>
  </diagram>
</mxfile>
